<svg id="ICON" xmlns="http://www.w3.org/2000/svg" viewBox="0 0 512 512"><defs><style>.cls-3{fill:#cb7e2d}.cls-4{fill:#b8701c}.cls-5{fill:#8bcb95}.cls-6{fill:#6aaa6c}.cls-7{fill:#964651}.cls-8{fill:#d4595d}.cls-9{fill:#383b41}.cls-10{fill:#3e4a5d}.cls-11{fill:#4e5f75}.cls-12{fill:#98abc1}</style></defs><path d="M210.42 364.35h91.16a32.33 32.33 0 0 1 32.33 32.33v24H178.09v-24a32.33 32.33 0 0 1 32.33-32.33z" style="fill:#b3bbbc"/><path d="M238.45 364.35h-28a32.33 32.33 0 0 0-32.33 32.33v24h28v-24a32.34 32.34 0 0 1 32.33-32.33z" style="fill:#8596a0"/><circle class="cls-3" cx="250.36" cy="189.95" r="67.77"/><path class="cls-4" d="M182.6 191.21a67.8 67.8 0 0 0 79.85 65.44 67.78 67.78 0 0 1-2.45-133.8 67.85 67.85 0 0 0-77.37 68.36z"/><rect class="cls-5" x="244.41" y="103.63" width="7.81" height="31.07" rx="3.91" transform="rotate(178.94 248.319 119.162)"/><path class="cls-5" d="M284.32 105.7c-15.5-6.63-31.37-4.25-35.46 5.3s5.16 22.67 20.66 29.31 44.4-1.48 44.4-1.48-14.11-26.51-29.6-33.13z"/><path class="cls-6" d="M313.92 138.83 248.86 111c-4.09 9.57 5.16 22.67 20.66 29.31s44.4-1.48 44.4-1.48z"/><path class="cls-7" d="M384.44 143.79 413.69 246a23.62 23.62 0 0 1-27.18 29.69L289.6 257a23.62 23.62 0 0 1-14-37.86l66.37-83.79a24.36 24.36 0 0 1 42.47 8.44z"/><path class="cls-8" d="m394.24 145.93 29.26 102.21a23.62 23.62 0 0 1-27.18 29.7l-96.91-18.69a23.62 23.62 0 0 1-14.05-37.86l66.38-83.78a24.35 24.35 0 0 1 42.5 8.42z"/><circle class="cls-9" cx="389.67" cy="243.14" r="9.64"/><circle class="cls-9" cx="360.82" cy="189.09" r="9.64"/><circle class="cls-9" cx="325.24" cy="231.18" r="9.64"/><path class="cls-7" d="m441 147.27 29.26 102.22a23.61 23.61 0 0 1-27.18 29.69l-96.92-18.68a23.62 23.62 0 0 1-14-37.86l66.37-83.79c12.27-15.54 37.01-10.64 42.47 8.42z"/><path class="cls-8" d="m450.8 149.41 29.26 102.21a23.63 23.63 0 0 1-27.18 29.7L356 262.63a23.62 23.62 0 0 1-14.05-37.86L408.3 141a24.35 24.35 0 0 1 42.5 8.41z"/><circle class="cls-9" cx="446.23" cy="246.62" r="9.64"/><circle class="cls-9" cx="419.73" cy="192.57" r="9.64"/><circle class="cls-9" cx="384.15" cy="234.66" r="9.64"/><circle class="cls-3" cx="123.15" cy="204.74" r="84.68"/><path class="cls-4" d="M42.56 230.77a84.74 84.74 0 0 0 119.19 49.35A84.69 84.69 0 0 1 110.35 121a84.75 84.75 0 0 0-67.79 109.77z"/><rect class="cls-5" x="90.2" y="101.41" width="9.76" height="38.82" rx="4.88" transform="rotate(162.1 95.084 120.817)"/><path class="cls-5" d="M133.27 91.68c-20.94-2.32-39.06 6.32-40.49 19.17s14.37 25.26 35.31 27.57 52.56-17.84 52.56-17.84-26.47-26.58-47.38-28.9z"/><path class="cls-6" d="m180.65 120.58-87.87-9.73c-1.43 12.93 14.37 25.26 35.31 27.57s52.56-17.84 52.56-17.84z"/><circle class="cls-10" cx="253.84" cy="240.75" r="23.28"/><circle class="cls-11" cx="253.84" cy="240.75" r="19.87"/><circle class="cls-12" cx="263.78" cy="236.35" r="4.35"/><path d="M26 253.6h460v22.46a90.71 90.71 0 0 1-90.71 90.71H116.71A90.71 90.71 0 0 1 26 276.07V253.6z" style="fill:#bdc7cb"/><path d="M83.92 276.07V253.6H26v22.47a90.71 90.71 0 0 0 90.71 90.71h57.92a90.71 90.71 0 0 1-90.71-90.71z" style="fill:#abb8be"/><circle class="cls-10" cx="286.68" cy="229.4" r="30.74"/><circle class="cls-11" cx="286.68" cy="229.4" r="26.24"/><circle class="cls-12" cx="299.79" cy="223.58" r="5.74"/><circle class="cls-10" cx="197.93" cy="265.3" r="35.89"/><circle class="cls-11" cx="197.93" cy="265.3" r="30.63"/><circle class="cls-12" cx="209.19" cy="252.89" r="6.7"/><circle class="cls-10" cx="196.12" cy="226.9" r="35.89"/><circle class="cls-11" cx="196.12" cy="226.9" r="30.63"/><circle class="cls-12" cx="207.38" cy="214.5" r="6.7"/><circle class="cls-10" cx="241.41" cy="253.57" r="35.89"/><circle class="cls-11" cx="241.41" cy="253.57" r="30.63"/><circle class="cls-12" cx="252.67" cy="241.17" r="6.7"/><circle class="cls-10" cx="240.22" cy="299.83" r="29.97"/><circle class="cls-11" cx="240.22" cy="299.83" r="25.58"/><circle class="cls-12" cx="249.62" cy="289.47" r="5.59"/><circle class="cls-10" cx="280.23" cy="286.94" r="29.97"/><circle class="cls-11" cx="280.23" cy="286.94" r="25.58"/><circle class="cls-12" cx="289.63" cy="276.58" r="5.59"/><circle class="cls-10" cx="285.95" cy="333.01" r="27.17"/><circle class="cls-11" cx="285.95" cy="333.01" r="23.19"/><circle class="cls-12" cx="294.47" cy="323.62" r="5.07"/></svg>